# xmcd CD database file
#
# Track frame offsets:
#	150
#	25959
#	64844
#	97784
#	126239
#	156281
#
# Disc length: 2492 seconds
#
# Revision: 0
# Processed by: cddbd v1.5.2PL0 Copyright (c) Steve Scherf et al.
# Submitted via: CDex 1.70beta3
#
DISCID=4709ba06
DTITLE=Big John Patton - That Certain Feeling
DYEAR=1968
DGENRE=Jazz
TTITLE0=String Bean
TTITLE1=I Want To Go Home
TTITLE2=Early A.M.
TTITLE3=Dirty Fingers
TTITLE4=Minor Swing
TTITLE5=Daddy James
EXTD=YEAR: 1968
EXTT0=
EXTT1=
EXTT2=
EXTT3=
EXTT4=
EXTT5=
PLAYORDER=
